<?xml version="1.0" standalone="no"?>
<!DOCTYPE svg PUBLIC "-//W3C//DTD SVG 20010904//EN"
 "http://www.w3.org/TR/2001/REC-SVG-20010904/DTD/svg10.dtd">
<svg version="1.0" xmlns="http://www.w3.org/2000/svg"
 width="700.000000pt" height="700.000000pt" viewBox="0 0 700.000000 700.000000"
 preserveAspectRatio="xMidYMid meet">
<metadata>
Created by potrace 1.14, written by Peter Selinger 2001-2017
</metadata>
<g transform="translate(0.000000,700.000000) scale(0.100000,-0.100000)"
fill="#000000" stroke="none">
<path d="M2969 5839 c-69 -41 -79 -73 -79 -266 l0 -170 -1022 0 c-732 0 -1045
-4 -1099 -12 -181 -28 -353 -116 -490 -251 -127 -126 -192 -232 -246 -406
l-28 -89 0 -1190 c0 -655 3 -1212 7 -1240 18 -126 67 -249 149 -370 147 -216
371 -354 634 -391 28 -4 167 -7 310 -8 l260 -1 5 -100 c6 -118 23 -155 85
-185 39 -19 63 -20 370 -20 312 0 331 1 371 21 67 32 85 70 88 187 l2 97 1212
0 c667 0 1212 -2 1213 -5 0 -3 2 -44 4 -91 4 -107 22 -150 78 -184 l41 -24
336 0 c319 0 339 1 378 20 61 30 82 81 82 195 l0 89 263 1 c351 1 420 12 577
86 248 118 417 317 499 587 l26 86 2 1185 c3 1274 4 1242 -48 1399 -96 287
-361 524 -659 590 -99 22 -202 24 -1172 24 l-1008 0 -1 161 c0 89 -2 170 -4
180 -5 28 -37 68 -74 93 -33 22 -34 22 -529 23 -489 0 -498 -1 -533 -21z"/>
</g>
</svg>
