<?xml version="1.0" standalone="no"?>
<!DOCTYPE svg PUBLIC "-//W3C//DTD SVG 20010904//EN"
 "http://www.w3.org/TR/2001/REC-SVG-20010904/DTD/svg10.dtd">
<svg version="1.0" xmlns="http://www.w3.org/2000/svg"
 width="260.000000pt" height="260.000000pt" viewBox="0 0 260.000000 260.000000"
 preserveAspectRatio="xMidYMid meet">
<metadata>
Created by potrace 1.14, written by Peter Selinger 2001-2017
</metadata>
<g transform="translate(0.000000,260.000000) scale(0.100000,-0.100000)"
fill="#000000" stroke="none">
<path d="M1005 2364 c-537 -82 -925 -548 -909 -1092 12 -392 237 -744 589
-920 327 -164 706 -151 1028 36 104 60 253 196 319 291 8 11 25 22 38 26 23 5
32 -6 115 -136 98 -154 115 -169 196 -169 36 0 48 6 87 45 40 40 44 49 39 79
-3 19 -22 61 -43 93 -77 120 -154 244 -154 250 0 3 13 22 29 42 139 177 162
447 54 655 -46 87 -164 210 -243 250 -42 22 -65 43 -98 91 -232 340 -644 520
-1047 459z"/>
</g>
</svg>
