<?xml version="1.0" standalone="no"?>
<!DOCTYPE svg PUBLIC "-//W3C//DTD SVG 20010904//EN"
 "http://www.w3.org/TR/2001/REC-SVG-20010904/DTD/svg10.dtd">
<svg version="1.0" xmlns="http://www.w3.org/2000/svg"
 width="512.000000pt" height="512.000000pt" viewBox="0 0 512.000000 512.000000"
 preserveAspectRatio="xMidYMid meet">
<metadata>
Created by potrace 1.14, written by Peter Selinger 2001-2017
</metadata>
<g transform="translate(0.000000,512.000000) scale(0.100000,-0.100000)"
fill="#000000" stroke="none">
<path d="M357 4724 c-1 -1 -22 -5 -47 -8 -137 -18 -261 -135 -299 -281 -8 -27
-11 -631 -11 -1870 0 -2000 -3 -1897 56 -1990 55 -87 158 -156 255 -173 24 -4
1045 -7 2269 -6 2350 1 2249 -1 2341 45 83 42 154 130 183 228 14 49 16 239
14 1915 -3 1785 -4 1863 -21 1901 -29 62 -92 141 -140 174 -24 16 -70 37 -103
47 -55 16 -199 17 -2277 18 -1220 1 -2219 0 -2220 0z"/>
</g>
</svg>
