<?xml version="1.0" standalone="no"?>
<!DOCTYPE svg PUBLIC "-//W3C//DTD SVG 20010904//EN"
 "http://www.w3.org/TR/2001/REC-SVG-20010904/DTD/svg10.dtd">
<svg version="1.0" xmlns="http://www.w3.org/2000/svg"
 width="700.000000pt" height="700.000000pt" viewBox="0 0 700.000000 700.000000"
 preserveAspectRatio="xMidYMid meet">
<metadata>
Created by potrace 1.14, written by Peter Selinger 2001-2017
</metadata>
<g transform="translate(0.000000,700.000000) scale(0.100000,-0.100000)"
fill="#000000" stroke="none">
<path d="M5105 3804 c-110 -20 -230 -63 -322 -115 -100 -57 -244 -197 -301
-294 -90 -154 -129 -345 -112 -545 27 -304 158 -517 431 -700 113 -75 206
-123 454 -230 359 -155 459 -219 512 -328 37 -76 39 -182 4 -254 -76 -157
-301 -237 -551 -194 -188 32 -356 145 -470 316 -24 36 -44 66 -46 68 -2 4
-499 -283 -522 -301 -26 -20 101 -208 220 -324 167 -163 372 -267 638 -324 90
-20 135 -23 320 -23 187 0 229 3 320 22 398 87 660 312 745 640 52 197 36 447
-39 634 -41 101 -88 170 -181 264 -142 144 -342 263 -684 409 -424 180 -504
249 -505 435 0 163 104 270 278 287 168 15 303 -51 409 -203 l51 -73 35 22
c205 126 466 301 465 312 -3 28 -102 163 -174 236 -128 130 -279 214 -460 254
-107 24 -408 29 -515 9z"/>
<path d="M3157 3783 c-4 -3 -7 -532 -7 -1174 0 -827 -3 -1183 -11 -1221 -25
-118 -96 -204 -190 -232 -78 -23 -215 -21 -284 5 -72 27 -155 104 -216 199
-27 41 -54 83 -61 94 -13 17 -31 8 -273 -139 -143 -87 -262 -159 -264 -161 -8
-7 26 -73 81 -156 100 -148 252 -280 402 -348 299 -135 716 -134 1001 3 262
127 418 359 464 692 7 51 11 476 11 1261 l0 1184 -323 0 c-178 0 -327 -3 -330
-7z"/>
</g>
</svg>
