<?xml version="1.0" standalone="no"?>
<!DOCTYPE svg PUBLIC "-//W3C//DTD SVG 20010904//EN"
 "http://www.w3.org/TR/2001/REC-SVG-20010904/DTD/svg10.dtd">
<svg version="1.0" xmlns="http://www.w3.org/2000/svg"
 width="700.000000pt" height="700.000000pt" viewBox="0 0 700.000000 700.000000"
 preserveAspectRatio="xMidYMid meet">
<metadata>
Created by potrace 1.14, written by Peter Selinger 2001-2017
</metadata>
<g transform="translate(0.000000,700.000000) scale(0.100000,-0.100000)"
fill="#000000" stroke="none">
<path d="M415 6953 c2 -27 7 -77 10 -113 3 -36 7 -85 9 -110 7 -75 16 -182 21
-235 3 -27 8 -77 10 -110 3 -33 7 -85 10 -115 10 -116 15 -167 20 -230 3 -36
7 -83 10 -105 2 -22 7 -71 10 -110 3 -38 8 -88 10 -110 7 -65 16 -176 20 -230
5 -62 13 -154 20 -220 3 -27 7 -77 10 -110 11 -130 16 -192 20 -230 2 -22 7
-71 10 -110 3 -38 8 -90 11 -115 2 -25 6 -76 9 -115 5 -66 11 -124 20 -205 2
-19 7 -71 10 -115 3 -44 8 -102 10 -130 3 -27 7 -75 10 -105 2 -30 7 -81 10
-112 3 -32 7 -84 10 -115 3 -32 8 -83 10 -113 5 -62 15 -162 21 -230 7 -71 11
-118 19 -225 4 -55 9 -107 10 -116 2 -9 6 -52 10 -95 3 -43 8 -97 10 -119 2
-22 7 -68 10 -102 3 -35 7 -89 10 -120 3 -32 7 -85 10 -118 3 -33 7 -80 10
-105 2 -25 7 -81 11 -125 4 -44 8 -93 10 -110 1 -16 5 -68 9 -115 3 -47 8 -92
10 -100 2 -8 7 -55 10 -105 4 -49 8 -103 10 -120 1 -16 5 -61 9 -100 4 -38 8
-90 10 -115 9 -105 18 -208 22 -245 2 -22 6 -69 9 -105 3 -36 7 -81 10 -100 2
-19 7 -73 10 -120 3 -47 8 -101 10 -120 3 -19 7 -64 10 -99 3 -35 7 -66 8 -68
3 -3 214 -65 267 -78 8 -2 80 -22 160 -45 80 -23 168 -47 195 -55 28 -7 97
-27 155 -43 58 -17 195 -56 305 -87 110 -31 319 -90 465 -132 146 -41 279 -79
295 -83 17 -5 120 -34 230 -65 110 -31 207 -58 215 -60 8 -2 63 -17 121 -34
l106 -31 144 41 c79 22 151 42 159 44 8 2 112 31 230 65 118 33 225 63 238 66
13 2 42 11 65 18 23 8 87 26 142 41 55 15 120 33 145 40 25 8 133 39 240 69
854 238 1163 326 1166 329 1 1 5 49 9 107 4 58 8 112 10 120 2 8 6 53 10 100
3 47 8 101 10 120 2 19 6 64 10 100 3 36 8 85 10 110 3 25 7 77 10 116 3 40 7
89 9 110 5 47 16 172 21 234 15 174 26 300 30 330 2 19 7 73 10 118 4 46 8 91
10 101 2 9 6 64 10 121 4 57 8 111 10 120 2 8 6 53 10 100 4 47 8 103 10 125
11 108 15 155 20 215 3 36 8 90 11 120 2 30 7 82 10 115 2 33 7 80 9 105 3 25
7 77 10 115 3 39 8 86 10 105 1 19 6 69 10 110 3 41 8 91 10 110 2 19 6 71 10
115 3 44 8 98 10 120 4 39 10 102 20 215 2 30 7 81 10 112 3 32 7 86 10 120 3
35 7 79 10 98 2 19 7 71 10 115 8 103 14 169 20 225 3 25 7 79 10 120 3 41 7
95 10 120 5 50 13 137 20 220 3 30 7 75 10 100 2 25 7 79 10 120 4 41 8 93 10
115 6 60 20 210 30 335 3 41 8 93 10 115 2 22 7 72 10 110 3 39 8 93 10 120
10 102 14 142 20 215 3 41 8 93 10 115 2 22 6 74 10 115 3 41 8 85 11 98 l4
22 -3084 0 -3085 0 4 -47z"/>
</g>
</svg>
