<?xml version="1.0" standalone="no"?>
<!DOCTYPE svg PUBLIC "-//W3C//DTD SVG 1.0//EN" "http://www.w3.org/TR/2001/REC-SVG-20010904/DTD/svg10.dtd">
<svg xmlns="http://www.w3.org/2000/svg" xmlns:xlink="http://www.w3.org/1999/xlink" id="body_1" width="10" height="10">

<g transform="matrix(0.625 0 0 0.625 0 0)">
	<g transform="matrix(0.032258064 0 0 0.032258064 0 0)">
		<g>
		</g>
		<g>
		</g>
		<g>
            <path d="M0 304.8L0 369.59998C 0 396.8 21.6 418.39996 48 418.39996L48 418.39996L448 418.39996C 474.4 418.39996 496 396.79996 496 369.59998L496 369.59998L496 304.8L0 304.8z" stroke="none" fill="#D32030" fill-rule="nonzero" />
            <path d="M448 418.4C 474.4 418.4 496 396.8 496 369.6L496 369.6L496 304.8L315.2 304.8L448 418.4z" stroke="none" fill="#C11025" fill-rule="nonzero" />
            <path d="M448 77.6L48 77.6C 21.6 77.6 0 99.2 0 126.399994L0 126.399994L0 191.2L496 191.2L496 126.399994C 496 99.2 474.4 77.6 448 77.6z" stroke="none" fill="#D32030" fill-rule="nonzero" />
            <path d="M448 77.6L48 77.6L180.8 191.2L496 191.2L496 126.399994C 496 99.2 474.4 77.6 448 77.6z" stroke="none" fill="#C11025" fill-rule="nonzero" />
            <path d="M448 77.6L48 77.6L418.4 191.2L496 191.2L496 126.399994C 496 99.2 474.4 77.6 448 77.6z" stroke="none" fill="#A5001C" fill-rule="nonzero" />
            <path d="M0 140.8L0 189.6L0 191.2L0 304.8L0 306.4L0 355.2L496 355.2L496 306.4L496 304.8L496 191.2L496 189.6L496 140.8L0 140.8" stroke="none" fill="#FFD034" fill-rule="nonzero" />
            <path d="M180 189.6L316 306.4L373.6 355.2L496 355.2L496 306.4L496 304.8L496 191.2L496 189.6L496 140.8L122.4 140.8L180 189.6" stroke="none" fill="#FFBC00" fill-rule="nonzero" />
            <path d="M255.2 140.8L414.4 189.6L496 214.4L496 191.2L496 189.6L496 140.8L255.2 140.8" stroke="none" fill="#FFAA00" fill-rule="nonzero" />
			<g>
                <path d="M496 369.6C 496 396.80002 474.4 418.4 448 418.4L448 418.4L48 418.4C 21.6 418.4 0 396.8 0 369.6" stroke="none" fill="#A5001C" fill-rule="nonzero" />
                <path d="M69.6 244.8L69.6 278.4C 69.6 295.19998 83.2 308.8 100 308.8C 116.8 308.8 130.4 295.19998 130.4 278.4L130.4 278.4L130.4 244.79999L69.6 244.8z" stroke="none" fill="#A5001C" fill-rule="nonzero" />
                <path d="M137.6 249.6L147.20001 249.6L147.20001 296L137.6 296L137.6 249.6z" stroke="none" fill="#A5001C" fill-rule="nonzero" />
                <path d="M151.2 301.6C 150.4 300.80002 149.59999 300.80002 148 300.80002C 147.2 300.80002 145.6 300.80002 144.8 301.6C 144 302.4 143.2 302.4 141.6 302.4C 140.8 302.4 139.20001 302.4 138.40001 301.6C 137.6 301.6 136.8 300.80002 135.20001 300.80002C 133.60002 300.80002 132.80002 300.80002 132.00002 301.6C 131.20001 302.4 130.40001 302.4 128.80002 302.4L128.80002 302.4L128.80002 304C 129.60002 304 131.20001 304 132.00002 303.2C 132.80002 303.2 133.60002 302.40002 135.20001 302.40002C 136.8 302.40002 137.6 302.40002 138.40001 303.2C 139.20001 304 140.00002 304 141.6 304C 142.40001 304 144 304 144.8 303.2C 145.6 303.2 146.40001 302.40002 148 302.40002C 148.8 302.40002 150.4 302.40002 151.2 303.2C 152 304 153.59999 304 154.4 304L154.4 304L154.4 302.4C 153.6 302.4 152 302.4 151.2 301.6z" stroke="none" fill="#A5001C" fill-rule="nonzero" />
                <path d="M148.8 304.8C 148 304.8 146.40001 304.8 145.6 305.59998C 144.8 306.39996 144 306.39996 142.40001 306.39996C 141.6 306.39996 140.00002 306.39996 139.20001 305.59998C 138.40001 305.59998 137.6 304.8 136.00002 304.8C 134.40002 304.8 133.60002 304.8 132.80002 305.59998C 132.00002 306.39996 131.20001 306.39996 129.60002 306.39996L129.60002 306.39996L129.60002 307.99997C 130.40002 307.99997 132.00002 307.99997 132.80002 307.19998C 133.60002 307.19998 134.40002 306.4 136.00002 306.4C 137.6 306.4 138.40001 306.4 139.20001 307.19998C 140.00002 307.99997 140.80002 307.99997 142.40001 307.99997C 143.20001 307.99997 144.8 307.99997 145.6 307.19998C 146.40001 307.19998 147.20001 306.4 148.8 306.4C 149.6 306.4 151.2 306.4 152 307.19998C 152.8 307.99997 153.6 307.99997 155.2 307.99997L155.2 307.99997L155.2 306.39996C 154.4 306.39996 152.8 306.39996 152 305.59998C 150.4 304.8 149.6 304.8 148.8 304.8z" stroke="none" fill="#A5001C" fill-rule="nonzero" />
                <path d="M148.8 308C 148 308 146.40001 308 145.6 308.8C 144.8 309.59998 144 309.59998 142.40001 309.59998C 141.6 309.59998 140.00002 309.59998 139.20001 308.8C 138.40001 308.8 137.6 308 136.00002 308C 134.40002 308 133.60002 308 132.80002 308.8C 132.00002 309.59998 131.20001 309.59998 129.60002 309.59998L129.60002 309.59998L129.60002 311.19998C 130.40002 311.19998 132.00002 311.19998 132.80002 310.4C 133.60002 310.4 134.40002 309.6 136.00002 309.6C 137.6 309.6 138.40001 309.6 139.20001 310.4C 140.00002 311.19998 140.80002 311.19998 142.40001 311.19998C 143.20001 311.19998 144.8 311.19998 145.6 310.4C 146.40001 310.4 147.20001 309.6 148.8 309.6C 149.6 309.6 151.2 309.6 152 310.4C 152.8 311.19998 153.6 311.19998 155.2 311.19998L155.2 311.19998L155.2 309.59998C 154.4 309.59998 152.8 309.59998 152 308.8C 150.4 308.8 149.6 308 148.8 308z" stroke="none" fill="#A5001C" fill-rule="nonzero" />
                <path d="M148.8 296.8C 148.8 297.59998 148 298.4 147.2 298.4L147.2 298.4L136.8 298.4C 136 298.4 135.2 297.6 135.2 296.8C 135.2 296 136 295.19998 136.8 295.19998L136.8 295.19998L147.2 295.19998C 148 295.2 148.8 296 148.8 296.8z" stroke="none" fill="#A5001C" fill-rule="nonzero" />
                <path d="M148.8 248.8C 148.8 249.6 148 250.40001 147.2 250.40001L147.2 250.40001L136.8 250.40001C 136 250.40001 135.2 249.6 135.2 248.8C 135.2 248 136 247.2 136.8 247.2L136.8 247.2L147.2 247.2C 148 248 148.8 248 148.8 248.8z" stroke="none" fill="#A5001C" fill-rule="nonzero" />
			</g>
			<g>
                <path d="M53.6 249.6L63.199997 249.6L63.199997 296L53.6 296L53.6 249.6z" stroke="none" fill="#D32030" fill-rule="nonzero" />
                <path d="M67.2 301.6C 66.399994 300.80002 65.6 300.80002 63.999996 300.80002C 63.199997 300.80002 61.599995 300.80002 60.799995 301.6C 59.999996 302.4 59.199997 302.4 57.599995 302.4C 56.799995 302.4 55.199993 302.4 54.399994 301.6C 53.599995 301.6 52.799995 300.80002 51.199993 300.80002C 50.399994 300.80002 48.79999 300.80002 47.999992 301.6C 47.199993 302.4 46.399994 302.4 44.79999 302.4L44.79999 302.4L44.79999 304C 45.59999 304 47.199993 304 47.999992 303.2C 48.79999 303.2 49.59999 302.40002 51.199993 302.40002C 51.999992 302.40002 53.599995 302.40002 54.399994 303.2C 55.999992 304 56.799995 304 58.399994 304C 59.199993 304 60.799995 304 61.599995 303.2C 62.399994 303.2 63.199993 302.40002 64.799995 302.40002C 65.6 302.40002 67.2 302.40002 67.99999 303.2C 67.99999 304 68.799995 304 70.399994 304L70.399994 304L70.399994 302.4C 68.8 302.4 68 302.4 67.2 301.6z" stroke="none" fill="#D32030" fill-rule="nonzero" />
                <path d="M64 304.8C 63.2 304.8 61.6 304.8 60.8 305.59998C 60 306.39996 59.2 306.39996 57.6 306.39996C 56.8 306.39996 55.199997 306.39996 54.399998 305.59998C 53.6 305.59998 52.8 304.8 51.199997 304.8C 50.399998 304.8 48.799995 304.8 47.999996 305.59998C 47.199997 306.39996 46.399998 306.39996 44.799995 306.39996L44.799995 306.39996L44.799995 307.99997C 45.599995 307.99997 47.199997 307.99997 47.999996 307.19998C 48.799995 307.19998 49.599995 306.4 51.199997 306.4C 51.999996 306.4 53.6 306.4 54.399998 307.19998C 55.199997 307.99997 55.999996 307.99997 57.6 307.99997C 58.399998 307.99997 60 307.99997 60.8 307.19998C 61.6 307.19998 62.399998 306.4 64 306.4C 64.8 306.4 66.4 306.4 67.2 307.19998C 68 307.99997 68.799995 307.99997 70.399994 307.99997L70.399994 307.99997L70.399994 306.39996C 69.59999 306.39996 67.99999 306.39996 67.2 305.59998C 66.4 304.8 65.6 304.8 64 304.8z" stroke="none" fill="#D32030" fill-rule="nonzero" />
                <path d="M64 308C 63.2 308 61.6 308 60.8 308.8C 60 309.59998 59.2 309.59998 57.6 309.59998C 56.8 309.59998 55.199997 309.59998 54.399998 308.8C 53.6 308.8 52.8 308 51.199997 308C 50.399998 308 48.799995 308 47.999996 308.8C 47.199997 309.59998 46.399998 309.59998 44.799995 309.59998L44.799995 309.59998L44.799995 311.19998C 45.599995 311.19998 47.199997 311.19998 47.999996 310.4C 48.799995 310.4 49.599995 309.6 51.199997 309.6C 51.999996 309.6 53.6 309.6 54.399998 310.4C 55.199997 311.19998 55.999996 311.19998 57.6 311.19998C 58.399998 311.19998 60 311.19998 60.8 310.4C 61.6 310.4 62.399998 309.6 64 309.6C 64.8 309.6 66.4 309.6 67.2 310.4C 68 311.19998 68.799995 311.19998 70.399994 311.19998L70.399994 311.19998L70.399994 309.59998C 69.59999 309.59998 67.99999 309.59998 67.2 308.8C 66.4 308.8 65.6 308 64 308z" stroke="none" fill="#D32030" fill-rule="nonzero" />
                <path d="M64.8 296.8C 64.8 297.59998 64 298.4 63.200005 298.4L63.200005 298.4L52.8 298.4C 52 298.4 51.2 297.6 51.2 296.8C 51.2 296 52 295.19998 52.8 295.19998L52.8 295.19998L63.199997 295.19998C 64 295.2 64.8 296 64.8 296.8z" stroke="none" fill="#D32030" fill-rule="nonzero" />
                <path d="M64.8 248.8C 64.8 249.6 64 250.40001 63.200005 250.40001L63.200005 250.40001L52.8 250.40001C 52 250.40001 51.2 249.6 51.2 248.8C 52 248 52.8 248 52.8 248L52.8 248L63.199997 248C 64 248 64.8 248 64.8 248.8z" stroke="none" fill="#D32030" fill-rule="nonzero" />
			</g>
			<g>
                <path d="M124 238.4C 124 236.79999 123.2 236 121.6 236C 121.6 234.4 112 233.6 100 233.6C 88 233.6 78.4 234.40001 78.4 236C 77.6 236 76.8 237.6 76.8 238.4C 76.8 239.2 77.600006 240.79999 79.200005 240.79999C 79.200005 242.4 88.8 243.19998 100.8 243.19998C 112.8 243.19998 122.4 242.39998 122.4 240.79999C 123.2 240.8 124 240 124 238.4z" stroke="none" fill="#A5001C" fill-rule="nonzero" />
                <path d="M137.6 217.6C 137.6 217.6 136.8 217.6 137.6 217.6L137.6 217.6L138.40001 216.8C 139.20001 215.2 140.00002 213.6 140.00002 212C 140.00002 208.8 137.60002 205.6 135.20001 204L135.20001 204L136.00002 204.8C 133.60002 203.2 129.60002 201.6 125.60001 201.6C 124.80001 201.6 124.000015 201.6 122.40002 201.6C 122.40002 201.6 122.40002 201.6 121.60001 201.6C 121.60001 201.6 120.80001 201.6 120.80001 202.40001C 120.80001 202.40001 120.80001 202.40001 120.00001 202.40001C 120.00001 202.40001 120.00001 202.40001 120.00001 203.20001C 119.200005 202.40001 118.40001 201.6 117.600006 200.80002C 116.00001 199.20001 112.8 197.60002 109.600006 197.60002C 107.200005 197.60002 104.8 198.40002 102.40001 199.20003C 102.40001 200.00003 102.40001 200.00003 102.40001 200.80003C 104.00001 200.00003 106.40001 199.20003 108.80001 199.20003C 113.60001 199.20003 118.40001 201.60002 118.40001 205.60002L118.40001 205.60002L118.40001 206.40002C 118.40001 208.00003 117.600006 208.80002 116.80001 209.60002C 114.40001 209.60002 112.80001 208.80002 111.20001 208.00002C 108.80001 207.20001 105.60001 206.40001 102.40001 206.40001C 102.40001 205.6 102.40001 204.8 102.40001 204.00002C 102.40001 204.00002 102.40001 204.00002 102.40001 203.20001C 102.40001 203.20001 102.40001 203.20001 102.40001 202.40001C 102.40001 200.8 102.40001 200.00002 102.40001 199.20001C 102.40001 198.40001 100.80001 197.6 100.00001 197.6C 101.600006 197.6 102.40001 196.8 103.200005 196C 103.200005 196 103.200005 195.2 103.200005 194.4C 103.200005 192.79999 102.4 192 100.8 191.2L100.8 191.2L100.8 188.8L102.4 188.8L102.4 187.2L100.8 187.2L100.8 185.59999L99.200005 185.59999L99.200005 187.2L97.600006 187.2L97.600006 188.8L99.200005 188.8L99.200005 191.2C 97.600006 191.2 96.8 192.8 96.8 194.4C 96.8 195.2 96.8 195.2 96.8 196C 97.600006 196.8 98.4 197.6 99.200005 197.6C 98.4 197.6 97.600006 198.40001 97.600006 198.40001C 97.600006 198.40001 97.600006 198.40001 97.600006 197.6C 97.600006 196.8 97.600006 196.8 96.8 196.8C 96 196.8 96 196.8 96 197.6C 96 198.40001 96 198.40001 96.8 198.40001L96.8 198.40001L97.600006 198.40001L96.8 199.20001C 95.200005 198.40001 92.8 197.6 89.600006 197.6C 86.40001 197.6 83.200005 198.40001 81.600006 200.8C 80.8 201.6 79.200005 202.40001 79.200005 203.2C 79.200005 203.2 79.200005 203.2 79.200005 202.4C 79.200005 202.4 79.200005 202.4 78.4 202.4C 78.4 202.4 78.4 201.59999 77.6 201.59999L77.6 201.59999L76.799995 201.59999C 75.99999 201.59999 75.2 201.59999 73.6 201.59999C 69.6 201.59999 65.6 203.2 63.199997 204.79999L63.199997 204.79999L64 204C 60.8 205.6 59.2 208.8 59.2 212C 59.2 213.6 60 216 60.8 216.8L60.8 216.8L61.6 217.6C 60.8 217.6 60 218.40001 60 220C 60 220 61.6 220 62.4 220.8C 63.200005 221.6 64 223.2 64 223.2C 64 224 64 224 64 224.8C 64.8 225.6 64.8 225.6 65.6 224.8C 66.4 225.6 67.2 227.2 68.799995 228C 69.6 228.8 71.2 228.8 71.99999 228.8C 71.99999 228.8 71.99999 228.8 72.799995 228.8L72.799995 228.8L72 228.8C 71.2 228.8 71.2 229.6 71.2 229.6C 71.2 230.40001 72 230.40001 72 230.40001C 72 230.40001 72.8 230.40001 73.6 231.20001L73.6 231.20001L74.4 232.00002L76 232.80002C 76 233.60002 76 234.40002 76 234.40002C 82.4 232.80002 90.4 231.20003 100 231.20003C 109.6 231.20003 118.4 232.80003 124 234.40002C 123.2 234.40002 123.2 233.60002 124 232.80002L124 232.80002L125.6 232.00002L124.799995 231.20001C 125.6 230.40001 126.399994 230.40001 126.399994 230.40001C 127.2 230.40001 127.2 230.40001 127.2 229.6C 127.2 228.8 127.2 228.8 126.399994 228.8C 125.59999 228.8 125.59999 228.8 124.799995 228.8L124.799995 228.8L125.6 229.6C 126.4 229.6 128 229.6 128.8 228.8C 130.40001 228 131.2 226.40001 132 225.6C 132.8 225.6 132.8 225.6 133.6 225.6C 134.40001 224.8 134.40001 224 133.6 224C 133.6 224 134.40001 222.4 135.20001 221.6C 136.00002 220.8 137.6 220.8 137.6 220.8C 140 219.2 138.4 217.6 137.6 217.6zM78.4 204C 77.6 204 77.6 204 77.6 204.8C 77.6 205.6 77.6 205.6 78.4 205.6L78.4 205.6L78.4 206.40001C 78.4 206.40001 77.6 206.40001 77.6 207.20001C 77.6 208.00002 77.6 208.00002 78.4 208.00002L78.4 208.00002L78.4 208.80002C 78.4 208.80002 78.4 208.80002 78.4 209.60002C 77.6 209.60002 76.8 209.60002 76 209.60002C 73.6 209.60002 71.2 210.40002 68 211.20003C 66.4 212.00003 65.6 212.80003 64 212.80003C 63.2 212.00003 63.2 211.20003 63.2 209.60004C 63.2 208.80003 63.2 208.00003 64 207.20004C 65.6 204.00005 70.4 202.40004 76 202.40004C 77.6 202.40004 78.4 202.40004 79.2 202.40004C 79.2 203.2 79.2 203.2 78.4 204zM97.6 202.4C 97.6 202.4 96.8 203.2 97.6 202.4C 97.6 204 97.6 204.79999 97.6 205.59999C 93.6 205.59999 90.4 206.4 88 207.2C 86.4 208 84.8 208 82.4 208.8C 81.6 208 80.8 206.40001 80.8 205.6L80.8 205.6L80.8 204.8C 80.8 201.6 84.8 198.40001 90.4 198.40001C 92.8 198.40001 95.200005 199.20001 96.8 200.00002L96.8 200.00002L96.8 199.20001C 97.6 200 97.6 200.8 97.6 202.4C 96.8 202.4 97.6 202.4 97.6 202.4zM138.4 207.2C 138.4 206.4 137.59999 205.59999 136.79999 204.8C 137.6 205.6 137.6 206.4 138.4 207.2zM136 212.8C 135.2 212 133.6 211.2 132 210.40001C 128.8 208.8 125.6 208.8 124 208.8C 123.2 208.8 122.4 208.8 122.4 208.8C 122.4 208.8 122.4 208 121.6 208L121.6 208L121.6 207.2C 122.4 207.2 122.4 207.2 122.4 206.4C 122.4 206.4 122.4 205.59999 121.6 205.59999L121.6 205.59999L121.6 204.79999C 122.4 204.79999 122.4 204.79999 122.4 203.99998C 122.4 203.19998 122.4 203.19998 121.6 203.19998C 121.6 203.19998 121.6 202.39998 120.799995 202.39998C 121.6 202.39998 123.2 202.39998 123.99999 202.39998C 129.59999 202.39998 134.4 204.79997 136 207.19998C 136 207.99998 136.8 208.79999 136.8 209.59998C 137.6 211.2 136.8 212 136 212.8z" stroke="none" fill="#A5001C" fill-rule="nonzero" />
                <path d="M139.2 217.6C 139.2 217.15817 139.55817 216.8 140 216.8C 140.44183 216.8 140.8 217.15817 140.8 217.6C 140.8 218.04184 140.44183 218.40001 140 218.40001C 139.55817 218.40001 139.2 218.04184 139.2 217.6" stroke="none" fill="#A5001C" fill-rule="nonzero" />
                <path d="M140 215.2C 140 214.75816 140.35817 214.4 140.8 214.4C 141.24184 214.4 141.6 214.75816 141.6 215.2C 141.6 215.64183 141.24184 216 140.8 216C 140.35817 216 140 215.64183 140 215.2" stroke="none" fill="#A5001C" fill-rule="nonzero" />
                <path d="M140.8 213.6C 140.8 213.15817 141.15817 212.8 141.6 212.8C 142.04184 212.8 142.40001 213.15817 142.40001 213.6C 142.40001 214.04184 142.04184 214.40001 141.6 214.40001C 141.15817 214.40001 140.8 214.04184 140.8 213.6" stroke="none" fill="#A5001C" fill-rule="nonzero" />
                <path d="M142.40001 210.4C 142.40001 210.62091 142.3219 210.80948 142.1657 210.96568C 142.00949 211.1219 141.82092 211.20001 141.6 211.2C 141.37909 211.20001 141.19054 211.1219 141.03432 210.96568C 140.87811 210.80948 140.8 210.62091 140.8 210.4C 140.8 210.17908 140.87811 209.99051 141.03432 209.8343C 141.19054 209.6781 141.37909 209.6 141.6 209.59999C 141.82092 209.6 142.00949 209.6781 142.1657 209.8343C 142.3219 209.99051 142.40001 210.17908 142.40001 210.4C 142.40001 210.4093 142.39984 210.41861 142.39952 210.42792" stroke="none" fill="#A5001C" fill-rule="nonzero" />
                <path d="M141.6 208C 141.6 208.22092 141.52191 208.40948 141.36569 208.56569C 141.20949 208.72191 141.02092 208.80002 140.8 208.8C 140.57909 208.80002 140.39053 208.72191 140.23431 208.56569C 140.07811 208.40948 140 208.22092 140 208C 140 207.77908 140.07811 207.59053 140.23431 207.43431C 140.39053 207.2781 140.57909 207.2 140.8 207.2C 141.02092 207.2 141.20949 207.2781 141.36569 207.43431C 141.52191 207.59053 141.6 207.77908 141.6 208C 141.6 208.00931 141.59985 208.01862 141.59952 208.02792" stroke="none" fill="#A5001C" fill-rule="nonzero" />
                <path d="M140 206.4C 140.8 206.4 140.8 206.4 140.8 205.59999C 140.8 204.79999 140.8 204.79999 140 204.79999C 139.2 204.79999 139.2 204.79999 139.2 205.59999C 139.2 206.4 139.2 206.4 140 206.4z" stroke="none" fill="#A5001C" fill-rule="nonzero" />
                <path d="M136.8 204C 136.8 203.55817 137.15817 203.2 137.6 203.2C 138.04184 203.2 138.40001 203.55817 138.40001 204C 138.40001 204.44183 138.04184 204.8 137.6 204.8C 137.15817 204.8 136.8 204.44183 136.8 204" stroke="none" fill="#A5001C" fill-rule="nonzero" />
                <path d="M135.2 202.4C 135.2 201.95816 135.55817 201.59999 136 201.59999C 136.44183 201.59999 136.8 201.95816 136.8 202.4C 136.8 202.84183 136.44183 203.2 136 203.2C 135.55817 203.2 135.2 202.84183 135.2 202.4" stroke="none" fill="#A5001C" fill-rule="nonzero" />
                <path d="M132.8 201.6C 132.8 201.15817 133.15817 200.8 133.6 200.8C 134.04184 200.8 134.40001 201.15817 134.40001 201.6C 134.40001 202.04184 134.04184 202.40001 133.6 202.40001C 133.15817 202.40001 132.8 202.04184 132.8 201.6" stroke="none" fill="#A5001C" fill-rule="nonzero" />
                <path d="M132 200C 132 200.22093 131.9219 200.40948 131.76569 200.56569C 131.60948 200.7219 131.42091 200.8 131.2 200.8C 130.97908 200.8 130.79053 200.7219 130.63431 200.56569C 130.4781 200.40948 130.4 200.22093 130.4 200C 130.4 199.7791 130.4781 199.59053 130.63431 199.43431C 130.79053 199.2781 130.97908 199.20001 131.2 199.2C 131.42091 199.20001 131.60948 199.2781 131.76569 199.43431C 131.9219 199.59053 132 199.7791 132 200C 132 200.00932 131.99985 200.01863 131.99951 200.02792" stroke="none" fill="#A5001C" fill-rule="nonzero" />
                <path d="M127.2 200C 127.2 199.55817 127.558174 199.2 128 199.2C 128.44183 199.2 128.8 199.55817 128.8 200C 128.8 200.44183 128.44183 200.8 128 200.8C 127.558174 200.8 127.2 200.44183 127.2 200" stroke="none" fill="#A5001C" fill-rule="nonzero" />
                <path d="M125.6 200.8C 126.4 200.8 126.4 200.8 126.4 200C 126.4 199.2 125.6 199.2 125.6 199.2C 124.799995 199.2 124.799995 199.2 124.799995 200C 124.8 200 124.8 200.8 125.6 200.8z" stroke="none" fill="#A5001C" fill-rule="nonzero" />
                <path d="M124 200C 124.00001 200.22093 123.921906 200.40948 123.765686 200.56569C 123.60948 200.7219 123.42091 200.8 123.2 200.8C 122.97909 200.8 122.79053 200.7219 122.63431 200.56569C 122.4781 200.40948 122.399994 200.22093 122.399994 200C 122.399994 199.7791 122.4781 199.59053 122.63431 199.43431C 122.79053 199.2781 122.97909 199.20001 123.2 199.2C 123.42091 199.20001 123.60948 199.2781 123.765686 199.43431C 123.921906 199.59053 124.00001 199.7791 124 200C 124.00001 200.00932 123.99985 200.01863 123.99951 200.02792" stroke="none" fill="#A5001C" fill-rule="nonzero" />
                <path d="M121.600006 200C 121.600006 200.22093 121.521904 200.40948 121.36569 200.56569C 121.20948 200.7219 121.02092 200.8 120.8 200.8C 120.579094 200.8 120.39053 200.7219 120.234314 200.56569C 120.07811 200.40948 120 200.22093 120 200C 120 199.7791 120.07811 199.59053 120.234314 199.43431C 120.39053 199.2781 120.579094 199.20001 120.8 199.2C 121.02092 199.20001 121.20948 199.2781 121.36569 199.43431C 121.521904 199.59053 121.600006 199.7791 121.600006 200C 121.600006 200.00932 121.599846 200.01863 121.59952 200.02792" stroke="none" fill="#A5001C" fill-rule="nonzero" />
                <path d="M117.6 198.4C 117.6 197.95816 117.958176 197.59999 118.4 197.59999C 118.84183 197.59999 119.200005 197.95816 119.200005 198.4C 119.200005 198.84183 118.84183 199.2 118.4 199.2C 117.958176 199.2 117.6 198.84183 117.6 198.4" stroke="none" fill="#A5001C" fill-rule="nonzero" />
                <path d="M115.2 196.8C 115.2 196.35817 115.558174 196 116 196C 116.441826 196 116.8 196.35817 116.8 196.8C 116.8 197.24184 116.441826 197.6 116 197.6C 115.558174 197.6 115.2 197.24184 115.2 196.8" stroke="none" fill="#A5001C" fill-rule="nonzero" />
                <path d="M114.4 196C 114.40001 196.22092 114.3219 196.40948 114.16569 196.56569C 114.009476 196.72191 113.820915 196.80002 113.6 196.8C 113.37909 196.80002 113.19052 196.72191 113.03431 196.56569C 112.8781 196.40948 112.799995 196.22092 112.799995 196C 112.799995 195.77908 112.8781 195.59053 113.03431 195.43431C 113.19052 195.2781 113.37909 195.2 113.6 195.2C 113.820915 195.2 114.009476 195.2781 114.16569 195.43431C 114.3219 195.59053 114.40001 195.77908 114.4 196C 114.40001 196.00931 114.39984 196.01862 114.39951 196.02792" stroke="none" fill="#A5001C" fill-rule="nonzero" />
                <path d="M110.399994 196C 110.399994 195.55817 110.75817 195.2 111.2 195.2C 111.64182 195.2 112 195.55817 112 196C 112 196.44183 111.64182 196.8 111.2 196.8C 110.75817 196.8 110.399994 196.44183 110.399994 196" stroke="none" fill="#A5001C" fill-rule="nonzero" />
                <path d="M108 196C 108 195.55817 108.35818 195.2 108.8 195.2C 109.24183 195.2 109.600006 195.55817 109.600006 196C 109.600006 196.44183 109.24183 196.8 108.8 196.8C 108.35818 196.8 108 196.44183 108 196" stroke="none" fill="#A5001C" fill-rule="nonzero" />
                <path d="M104.799995 196C 104.799995 195.55817 105.15817 195.2 105.6 195.2C 106.041824 195.2 106.4 195.55817 106.4 196C 106.4 196.44183 106.041824 196.8 105.6 196.8C 105.15817 196.8 104.799995 196.44183 104.799995 196" stroke="none" fill="#A5001C" fill-rule="nonzero" />
                <path d="M104 196.8C 104 197.02094 103.9219 197.2095 103.765686 197.36569C 103.609474 197.52191 103.42091 197.6 103.2 197.6C 102.97909 197.6 102.79053 197.52191 102.63431 197.36569C 102.4781 197.2095 102.399994 197.02094 102.399994 196.8C 102.399994 196.5791 102.4781 196.39053 102.63431 196.23431C 102.79053 196.07811 102.97909 196 103.2 196C 103.42091 196 103.609474 196.07811 103.765686 196.23431C 103.9219 196.39053 104 196.5791 104 196.8C 104 196.80933 103.99984 196.81863 103.99951 196.82793" stroke="none" fill="#A5001C" fill-rule="nonzero" />
                <path d="M60 217.6C 60 217.15817 60.35817 216.8 60.8 216.8C 61.24183 216.8 61.6 217.15817 61.6 217.6C 61.6 218.04184 61.24183 218.40001 60.8 218.40001C 60.35817 218.40001 60 218.04184 60 217.6" stroke="none" fill="#A5001C" fill-rule="nonzero" />
                <path d="M59.2 215.2C 59.2 214.75816 59.55817 214.4 60 214.4C 60.44183 214.4 60.8 214.75816 60.8 215.2C 60.8 215.64183 60.44183 216 60 216C 59.55817 216 59.2 215.64183 59.2 215.2" stroke="none" fill="#A5001C" fill-rule="nonzero" />
                <path d="M58.4 213.6C 58.4 213.15817 58.75817 212.8 59.2 212.8C 59.64183 212.8 60 213.15817 60 213.6C 60 214.04184 59.64183 214.40001 59.2 214.40001C 58.75817 214.40001 58.4 214.04184 58.4 213.6" stroke="none" fill="#A5001C" fill-rule="nonzero" />
                <path d="M58.4 210.4C 58.4 209.95816 58.75817 209.59999 59.2 209.59999C 59.64183 209.59999 60 209.95816 60 210.4C 60 210.84183 59.64183 211.2 59.2 211.2C 58.75817 211.2 58.4 210.84183 58.4 210.4" stroke="none" fill="#A5001C" fill-rule="nonzero" />
                <path d="M59.2 208C 59.2 207.55817 59.55817 207.2 60 207.2C 60.44183 207.2 60.8 207.55817 60.8 208C 60.8 208.44183 60.44183 208.8 60 208.8C 59.55817 208.8 59.2 208.44183 59.2 208" stroke="none" fill="#A5001C" fill-rule="nonzero" />
                <path d="M60 205.6C 60 205.15817 60.35817 204.8 60.8 204.8C 61.24183 204.8 61.6 205.15817 61.6 205.6C 61.6 206.04184 61.24183 206.40001 60.8 206.40001C 60.35817 206.40001 60 206.04184 60 205.6" stroke="none" fill="#A5001C" fill-rule="nonzero" />
                <path d="M63.2 204C 63.200005 204.22092 63.1219 204.40948 62.965687 204.56569C 62.80948 204.72191 62.62092 204.80002 62.4 204.8C 62.179092 204.80002 61.99053 204.72191 61.834316 204.56569C 61.67811 204.40948 61.600006 204.22092 61.600002 204C 61.600006 203.77908 61.67811 203.59052 61.834316 203.43431C 61.99053 203.2781 62.179092 203.20001 62.4 203.2C 62.62092 203.20001 62.80948 203.2781 62.965687 203.43431C 63.1219 203.59052 63.200005 203.77908 63.2 204C 63.200005 204.00931 63.19984 204.01862 63.199512 204.02792" stroke="none" fill="#A5001C" fill-rule="nonzero" />
                <path d="M64 202.4C 64 201.95816 64.35818 201.59999 64.8 201.59999C 65.24183 201.59999 65.600006 201.95816 65.600006 202.4C 65.600006 202.84183 65.24183 203.2 64.8 203.2C 64.35818 203.2 64 202.84183 64 202.4" stroke="none" fill="#A5001C" fill-rule="nonzero" />
                <path d="M66.399994 201.6C 66.399994 201.15817 66.75817 200.8 67.2 200.8C 67.64182 200.8 68 201.15817 68 201.6C 68 202.04184 67.64182 202.40001 67.2 202.40001C 66.75817 202.40001 66.399994 202.04184 66.399994 201.6" stroke="none" fill="#A5001C" fill-rule="nonzero" />
                <path d="M70.4 200C 70.4 200.22093 70.3219 200.40948 70.16569 200.56569C 70.009476 200.7219 69.82091 200.8 69.6 200.8C 69.37909 200.8 69.19052 200.7219 69.03431 200.56569C 68.8781 200.40948 68.799995 200.22093 68.799995 200C 68.799995 199.7791 68.8781 199.59053 69.03431 199.43431C 69.19052 199.2781 69.37909 199.20001 69.6 199.2C 69.82091 199.20001 70.009476 199.2781 70.16569 199.43431C 70.3219 199.59053 70.4 199.7791 70.4 200C 70.4 200.00932 70.39984 200.01863 70.39951 200.02792" stroke="none" fill="#A5001C" fill-rule="nonzero" />
                <path d="M73.600006 200C 73.600006 200.22093 73.521904 200.40948 73.36569 200.56569C 73.20948 200.7219 73.02092 200.8 72.8 200.8C 72.579094 200.8 72.39053 200.7219 72.234314 200.56569C 72.07811 200.40948 72 200.22093 72 200C 72 199.7791 72.07811 199.59053 72.234314 199.43431C 72.39053 199.2781 72.579094 199.20001 72.8 199.2C 73.02092 199.20001 73.20948 199.2781 73.36569 199.43431C 73.521904 199.59053 73.600006 199.7791 73.600006 200C 73.600006 200.00932 73.599846 200.01863 73.59952 200.02792" stroke="none" fill="#A5001C" fill-rule="nonzero" />
                <path d="M74.399994 200C 74.399994 199.55817 74.75817 199.2 75.2 199.2C 75.64182 199.2 76 199.55817 76 200C 76 200.44183 75.64182 200.8 75.2 200.8C 74.75817 200.8 74.399994 200.44183 74.399994 200" stroke="none" fill="#A5001C" fill-rule="nonzero" />
                <path d="M76.799995 200C 76.799995 199.55817 77.15817 199.2 77.6 199.2C 78.041824 199.2 78.4 199.55817 78.4 200C 78.4 200.44183 78.041824 200.8 77.6 200.8C 77.15817 200.8 76.799995 200.44183 76.799995 200" stroke="none" fill="#A5001C" fill-rule="nonzero" />
                <path d="M80.8 200C 80.8 200.22093 80.7219 200.40948 80.56569 200.56569C 80.40948 200.7219 80.22092 200.8 80 200.8C 79.77909 200.8 79.59053 200.7219 79.43431 200.56569C 79.27811 200.40948 79.2 200.22093 79.2 200C 79.2 199.7791 79.27811 199.59053 79.43431 199.43431C 79.59053 199.2781 79.77909 199.20001 80 199.2C 80.22092 199.20001 80.40948 199.2781 80.56569 199.43431C 80.7219 199.59053 80.8 199.7791 80.8 200C 80.8 200.00932 80.79984 200.01863 80.799515 200.02792" stroke="none" fill="#A5001C" fill-rule="nonzero" />
                <path d="M81.6 198.4C 81.6 197.95816 81.958176 197.59999 82.4 197.59999C 82.84183 197.59999 83.200005 197.95816 83.200005 198.4C 83.200005 198.84183 82.84183 199.2 82.4 199.2C 81.958176 199.2 81.6 198.84183 81.6 198.4" stroke="none" fill="#A5001C" fill-rule="nonzero" />
                <path d="M84 196.8C 84 196.35817 84.35818 196 84.8 196C 85.24183 196 85.600006 196.35817 85.600006 196.8C 85.600006 197.24184 85.24183 197.6 84.8 197.6C 84.35818 197.6 84 197.24184 84 196.8" stroke="none" fill="#A5001C" fill-rule="nonzero" />
                <path d="M86.399994 196C 86.399994 195.55817 86.75817 195.2 87.2 195.2C 87.64182 195.2 88 195.55817 88 196C 88 196.44183 87.64182 196.8 87.2 196.8C 86.75817 196.8 86.399994 196.44183 86.399994 196" stroke="none" fill="#A5001C" fill-rule="nonzero" />
                <path d="M88.799995 196C 88.799995 195.55817 89.15817 195.2 89.6 195.2C 90.041824 195.2 90.4 195.55817 90.4 196C 90.4 196.44183 90.041824 196.8 89.6 196.8C 89.15817 196.8 88.799995 196.44183 88.799995 196" stroke="none" fill="#A5001C" fill-rule="nonzero" />
                <path d="M91.2 196C 91.2 195.55817 91.558174 195.2 92 195.2C 92.441826 195.2 92.8 195.55817 92.8 196C 92.8 196.44183 92.441826 196.8 92 196.8C 91.558174 196.8 91.2 196.44183 91.2 196" stroke="none" fill="#A5001C" fill-rule="nonzero" />
                <path d="M94.399994 196C 94.399994 195.55817 94.75817 195.2 95.2 195.2C 95.64182 195.2 96 195.55817 96 196C 96 196.44183 95.64182 196.8 95.2 196.8C 94.75817 196.8 94.399994 196.44183 94.399994 196" stroke="none" fill="#A5001C" fill-rule="nonzero" />
			</g>
			<g>
                <path d="M64 247.2C 64 246.4 64 246.4 64 247.2C 63.2 246.4 60.8 246.4 58.4 246.4C 55.2 246.4 52.800003 246.4 52.800003 247.2C 52.800003 247.2 52.800003 247.2 52.800003 248C 52.800003 248 52.800003 248.8 53.600002 248.8C 53.600002 248.8 56.000004 249.6 59.2 249.6C 62.399998 249.6 63.2 248 64 247.2z" stroke="none" fill="#D32030" fill-rule="nonzero" />
                <path d="M67.2 241.6C 68 240.8 68 240.8 68 240C 68 239.2 67.2 238.4 66.4 238.4C 65.6 237.59999 64.8 237.59999 64 237.59999L64 237.59999L63.2 237.59999C 63.2 237.59999 63.2 236.79999 62.4 236.79999C 61.600002 235.99998 61.600002 235.99998 60 235.99998C 59.2 235.99998 58.4 235.99998 58.4 236.79999C 59.2 236.79999 59.2 235.99998 60 235.99998C 61.6 235.99998 62.4 236.79999 62.4 237.59999L62.4 237.59999L62.4 238.4C 61.600002 238.4 61.600002 238.4 60.800003 238.4C 60.000004 238.4 59.200005 238.4 58.4 237.59999C 58.4 237.59999 58.4 237.59999 58.4 236.79999L58.4 236.79999L58.4 236C 58.4 236 58.4 235.2 57.600002 235.2C 57.600002 235.2 58.4 235.2 58.4 234.4C 58.4 234.4 58.4 233.59999 57.600002 233.59999L57.600002 233.59999L57.600002 232.79999L58.4 232.79999L58.4 232L58.4 231.2L58.4 232L57.600002 232L57.600002 232.8L58.4 232.8L58.4 233.6C 58.4 233.6 57.600002 233.6 57.600002 234.40001C 57.600002 234.40001 57.600002 235.20001 58.4 235.20001C 58.4 235.20001 58.4 235.20001 57.600002 235.20001C 56.800003 235.20001 56.800003 234.40001 56.000004 234.40001C 55.200005 234.40001 54.400005 234.40001 53.600002 235.20001C 53.600002 235.20001 52.800003 235.20001 52.800003 236.00002L52.800003 236.00002L52 236.00002C 51.2 236.00002 50.4 236.00002 49.6 236.80002C 48.8 237.60002 48 237.60002 48 238.40002C 48 239.20003 48 239.20003 48.8 240.00003C 48.8 240.00003 48 240.00003 48 240.80003L48 240.80003L48.8 240.80003L49.6 241.60004C 49.6 241.60004 49.6 241.60004 49.6 242.40004C 49.6 242.40004 49.6 243.20004 50.399998 243.20004L50.399998 243.20004L51.199997 243.20004C 51.199997 243.20004 51.199997 243.20004 51.199997 244.00005C 52.799995 243.20004 54.399998 243.20004 56.799995 243.20004C 59.199997 243.20004 61.599995 243.20004 62.399994 244.00005C 62.399994 244.00005 62.399994 244.00005 62.399994 243.20004L62.399994 243.20004L63.199993 243.20004L63.999992 242.40004C 63.999992 242.40004 63.999992 242.40004 63.999992 241.60004C 66.4 243.2 67.2 242.4 67.2 241.6C 67.2 242.4 68 242.4 67.2 241.6C 68 242.4 67.2 241.6 67.2 241.6zM52.8 238.4C 52.8 238.4 52.8 239.2 52.8 238.4C 52.8 239.2 52.8 239.2 52.8 238.4C 52.8 239.2 52.8 239.2 52.8 238.4C 52.8 239.2 52.8 239.2 52.8 239.2C 52.8 239.2 52.8 239.2 52 239.2C 51.2 239.2 50.4 239.2 50.4 240C 50.4 240 49.600002 240 49.600002 240.8L49.600002 240.8L49.600002 240L49.600002 239.2C 49.600002 238.4 51.2 237.59999 52.800003 237.59999C 52.8 238.4 52.8 238.4 52.8 238.4zM57.6 238.4C 56.8 239.2 56 239.2 55.199997 239.2C 55.199997 239.2 54.399998 239.2 53.6 239.2L53.6 239.2L53.6 238.4C 53.6 237.59999 54.399998 236.79999 56 236.79999C 56.8 237.6 56.8 237.6 57.6 238.4C 57.6 237.6 57.6 237.6 57.6 238.4C 57.6 237.6 57.6 237.6 57.6 238.4zM67.2 240.8C 67.2 240.8 66.399994 240.8 66.399994 240C 65.59999 240 64.799995 240 63.999992 240C 63.999992 240 63.999992 240 63.199993 240L63.199993 240L64 240C 65.6 240 66.4 240.8 67.2 241.6C 67.2 239.2 67.2 240 67.2 240.8C 67.2 240 67.2 240.8 67.2 240.8z" stroke="none" fill="#D32030" fill-rule="nonzero" />
			</g>
			<g>
                <path d="M68 239.2C 68 239.2 67.2 239.2 68 239.2C 67.2 239.2 68 239.2 68 239.2z" stroke="none" fill="#A5001C" fill-rule="nonzero" />
                <path d="M148 247.2C 148 246.4 148 246.4 148 247.2C 147.2 246.4 144.8 246.4 142.4 246.4C 139.2 246.4 136.79999 246.4 136.79999 247.2C 136.79999 247.2 136.79999 247.2 136.79999 248C 136.79999 248 136.79999 248.8 137.59999 248.8C 137.59999 248.8 139.99998 249.6 143.2 249.6C 145.6 248 148 248 148 247.2z" stroke="none" fill="#A5001C" fill-rule="nonzero" />
                <path d="M151.2 241.6C 152 241.6 152 240.8 152 240C 152 239.2 151.2 238.4 150.4 238.4C 149.59999 237.59999 148.79999 237.59999 148 237.59999L148 237.59999L147.2 237.59999C 147.2 237.59999 147.2 236.79999 146.4 236.79999C 145.59999 235.99998 145.59999 235.99998 144 235.99998C 143.2 235.99998 142.4 235.99998 142.4 236.79999C 143.2 236.79999 143.2 235.99998 144 235.99998C 145.6 235.99998 146.4 236.79999 146.4 237.59999L146.4 237.59999L146.4 238.4C 145.59999 238.4 145.59999 238.4 144.79999 238.4C 143.99998 238.4 143.19998 238.4 142.4 237.59999C 142.4 237.59999 142.4 237.59999 142.4 236.79999L142.4 236.79999L142.4 236C 142.4 236 142.4 235.2 141.59999 235.2C 141.59999 235.2 142.4 235.2 142.4 234.4C 142.4 234.4 142.4 233.59999 141.59999 233.59999L141.59999 233.59999L141.59999 232.79999L142.4 232.79999L142.4 232L141.59999 232L141.59999 231.2L140.79999 231.2L140.79999 232L140 232L140 232.8L140.8 232.8L140.8 233.6C 140.8 233.6 140 233.6 140 234.40001C 140 234.40001 140 235.20001 140.8 235.20001C 140.8 235.20001 140.8 235.20001 140 235.20001C 139.2 235.20001 139.2 234.40001 138.4 234.40001C 137.59999 234.40001 136.79999 234.40001 136 235.20001C 136 235.20001 135.2 235.20001 135.2 236.00002L135.2 236.00002L134.4 236.00002C 133.59999 236.00002 132.79999 236.00002 132 236.80002C 131.2 237.60002 130.4 237.60002 130.4 238.40002C 130.4 239.20003 130.4 239.20003 131.2 240.00003C 131.2 240.00003 130.4 240.00003 130.4 240.80003C 130.4 240.80003 130.4 240.80003 131.2 240.80003L131.2 240.80003L132 241.60004C 132 241.60004 132 241.60004 132 242.40004C 132 242.40004 132 243.20004 132.8 243.20004L132.8 243.20004L133.6 243.20004C 133.6 243.20004 133.6 243.20004 133.6 244.00005C 135.20001 243.20004 136.8 243.20004 139.20001 243.20004C 141.6 243.20004 144.00002 243.20004 144.80002 244.00005C 144.80002 244.00005 144.80002 244.00005 144.80002 243.20004L144.80002 243.20004L145.60002 243.20004L146.40002 242.40004C 146.40002 242.40004 146.40002 242.40004 146.40002 241.60004C 151.2 243.2 151.2 242.4 151.2 241.6C 151.2 242.4 152 242.4 151.2 241.6C 152 242.4 152 241.6 151.2 241.6zM137.6 238.4C 136.8 238.4 136.8 238.4 137.6 238.4C 136.8 238.4 136.8 239.2 137.6 238.4C 136.8 239.2 136.8 239.2 137.6 238.4C 136.8 239.2 136.8 239.2 137.6 238.4C 137.6 239.2 137.6 239.2 137.6 239.2C 137.6 239.2 137.6 239.2 136.8 239.2C 136 239.2 135.2 239.2 135.2 240C 135.2 240 134.4 240 134.4 240.8L134.4 240.8L134.4 240L134.4 239.2C 134.4 238.4 136 237.59999 137.59999 237.59999C 136.8 238.4 136.8 238.4 137.6 238.4zM141.6 238.4C 140.8 239.2 140 239.2 139.20001 239.2C 139.20001 239.2 138.40001 239.2 137.6 239.2L137.6 239.2L137.6 238.4C 137.6 237.59999 138.40001 236.79999 140 236.79999C 140.8 237.6 141.6 237.6 141.6 238.4C 141.6 237.6 141.6 237.6 141.6 238.4C 141.6 237.6 141.6 237.6 141.6 238.4zM152 239.2C 151.2 239.2 151.2 239.2 152 239.2C 151.2 239.2 151.2 239.2 152 239.2zM151.2 240.8C 151.2 240.8 150.4 240.8 150.4 240C 149.59999 240 148.79999 239.2 148.79999 239.2C 148.79999 239.2 148.79999 239.2 147.99998 239.2L147.99998 239.2L148.79999 239.2C 150.4 239.2 151.19998 240 151.99998 240.8C 151.2 239.2 151.2 240 151.2 240.8C 151.2 240 151.2 240.8 151.2 240.8z" stroke="none" fill="#A5001C" fill-rule="nonzero" />
			</g>
			<g>
                <path d="M100 231.2L100 184.79999L99.2 184.79999L99.2 186.4L97.6 186.4L97.6 188L99.2 188L99.2 190.4C 97.6 190.4 96.799995 192 96.799995 193.59999C 96.799995 194.4 96.799995 194.4 96.799995 195.2C 97.6 196 98.399994 196.8 99.2 196.8C 98.399994 196.8 97.6 197.6 97.6 197.6C 97.6 197.6 97.6 197.6 97.6 196.8C 97.6 196 97.6 196 96.799995 196C 95.99999 196 95.99999 196 95.99999 196.8C 95.99999 197.6 95.99999 197.6 96.799995 197.6L96.799995 197.6L97.6 197.6L96.799995 198.40001C 95.2 197.6 92.799995 196.8 89.6 196.8C 86.4 196.8 83.2 197.6 81.6 200C 80.799995 200.8 79.2 201.6 79.2 202.4C 79.2 202.4 79.2 202.4 79.2 201.59999C 79.2 201.59999 79.2 201.59999 78.399994 201.59999C 78.399994 201.59999 78.399994 200.79999 77.59999 200.79999L77.59999 200.79999L76.79999 200.79999C 75.999985 200.79999 75.19999 200.79999 73.59999 200.79999C 69.59999 200.79999 65.59999 202.4 63.19999 203.99998L63.19999 203.99998L63.99999 203.19998C 60.799988 204.79999 59.19999 207.99998 59.19999 211.19998C 59.19999 212.79999 59.99999 215.19998 60.799988 215.99998L60.799988 215.99998L61.599987 216.79999C 60.799988 216.79999 59.99999 217.59999 59.99999 219.19998C 59.99999 219.19998 61.599987 219.19998 62.39999 219.99998C 63.199993 220.79999 63.99999 222.39998 63.99999 222.39998C 63.99999 223.19998 63.99999 223.19998 63.99999 223.99998C 64.79999 224.79999 64.79999 224.79999 65.59999 223.99998C 66.399994 224.79999 67.19999 226.39998 68.79999 227.19998C 69.59999 227.99998 71.19999 227.99998 71.999985 227.99998C 71.999985 227.99998 71.999985 227.99998 72.79999 227.99998L72.79999 227.99998L72 227.99998C 71.2 227.99998 71.2 228.79999 71.2 228.79999C 71.2 229.59999 72 229.59999 72 229.59999C 72 229.59999 72.8 229.59999 73.6 230.4L73.6 230.4L74.4 232L76 232.8C 76 233.6 76 234.40001 76 234.40001C 82.4 232 91.2 231.2 100 231.2zM80.8 204.8C 80.8 201.6 84.8 198.40001 90.4 198.40001C 92.8 198.40001 95.200005 199.20001 96.8 200.00002L96.8 200.00002L96.8 199.20001C 96.8 200.00002 96.8 200.80002 96.8 201.6C 96.8 201.6 96.8 201.6 96.8 202.40001C 96.8 202.40001 96.8 202.40001 96.8 203.20001C 96.8 204.00002 96.8 204.80002 96.8 205.6C 92.8 205.6 89.600006 206.40001 87.200005 207.20001C 85.600006 208.00002 84.00001 208.00002 81.600006 208.80002C 81.6 208 80.8 206.4 80.8 204.8zM76 208.8C 73.6 208.8 71.2 209.6 68 210.40001C 66.4 211.20001 65.6 212.00002 64 212.00002C 63.2 211.20001 63.2 210.40001 63.2 208.80002C 63.2 208.00002 63.2 207.20001 64 206.40002C 65.6 203.20003 70.4 201.60002 76 201.60002C 77.6 201.60002 78.4 201.60002 79.2 201.60002C 79.2 201.60002 79.2 202.40002 78.399994 202.40002C 77.59999 202.40002 77.59999 202.40002 77.59999 203.20003C 77.59999 204.00003 77.59999 204.00003 78.399994 204.00003L78.399994 204.00003L78.399994 204.80003C 78.399994 204.80003 77.59999 204.80003 77.59999 205.60004C 77.59999 206.40004 77.59999 206.40004 78.399994 206.40004L78.399994 206.40004L78.399994 207.20004C 78.399994 207.20004 78.399994 207.20004 78.399994 208.00005C 77.6 208.8 76.8 208.8 76 208.8z" stroke="none" fill="#D32030" fill-rule="nonzero" />
                <path d="M100 233.6C 87.2 233.6 77.6 234.40001 77.6 236C 76.799995 236 76 237.6 76 238.4C 76 239.2 76.8 240.79999 78.4 240.79999C 78.4 242.4 88 243.19998 100 243.19998L100 243.19998L100 233.6z" stroke="none" fill="#D32030" fill-rule="nonzero" />
                <path d="M100 244.8L69.6 244.8L69.6 278.4C 69.6 295.19998 83.2 308.8 100 308.8L100 308.8L100 244.8z" stroke="none" fill="#D32030" fill-rule="nonzero" />
			</g>
		</g>
	</g>
</g>
</svg>